<svg xmlns="http://www.w3.org/2000/svg" width="22" height="22" viewBox="0 0 22 22">
    <g fill="none" fill-rule="evenodd" stroke="#FFF" stroke-linecap="round" stroke-linejoin="round" stroke-width="2" opacity=".4" transform="translate(1 1)">
        <circle cx="10" cy="10" r="2.727"/>
        <path d="M16.727 12.727c-.247.561-.129 1.216.3 1.655l.055.054c.341.341.533.804.533 1.287 0 .482-.192.945-.533 1.286-.341.342-.804.533-1.287.533-.482 0-.945-.191-1.286-.533l-.054-.054c-.439-.43-1.094-.548-1.655-.3-.55.235-.907.774-.91 1.372v.155c0 1.004-.813 1.818-1.817 1.818s-1.818-.814-1.818-1.818V18.1c-.015-.616-.404-1.16-.982-1.373-.561-.247-1.216-.129-1.655.3l-.054.055c-.341.341-.804.533-1.287.533-.482 0-.945-.192-1.286-.533-.342-.341-.533-.804-.533-1.287 0-.482.191-.945.533-1.286l.054-.054c.43-.439.548-1.094.3-1.655-.235-.55-.774-.907-1.372-.91h-.155C.814 11.89 0 11.078 0 10.074s.814-1.818 1.818-1.818H1.9c.616-.015 1.16-.404 1.373-.982.247-.561.129-1.216-.3-1.655l-.055-.054c-.341-.341-.533-.804-.533-1.287 0-.482.192-.945.533-1.286.341-.342.804-.533 1.287-.533.482 0 .945.191 1.286.533l.054.054c.439.43 1.094.548 1.655.3h.073c.55-.235.906-.774.909-1.372v-.155C8.182.814 8.996 0 10 0s1.818.814 1.818 1.818V1.9c.003.598.36 1.137.91 1.373.56.247 1.215.129 1.654-.3l.054-.055c.341-.341.804-.533 1.287-.533.482 0 .945.192 1.286.533.342.341.533.804.533 1.287 0 .482-.191.945-.533 1.286l-.054.054c-.43.439-.548 1.094-.3 1.655v.073c.235.55.774.906 1.372.909h.155C19.186 8.182 20 8.996 20 10s-.814 1.818-1.818 1.818H18.1c-.598.003-1.137.36-1.373.91z"/>
    </g>
</svg>
